<?xml version="1.0" encoding="utf-8"?>
<!DOCTYPE svg PUBLIC "-//W3C//DTD SVG 1.1//EN" "http://www.w3.org/Graphics/SVG/1.1/DTD/svg11.dtd">
<svg version="1.1" xmlns="http://www.w3.org/2000/svg" xmlns:xlink="http://www.w3.org/1999/xlink" x="0px" y="0px" viewBox="0 0 1000 1000" enable-background="new 0 0 1000 1000" xml:space="preserve">
<g fill="white"><path d="M955.6,542.1h-91.4c-19,0-34.4-15.4-34.4-34.4c0-19,15.4-34.4,34.4-34.4h91.4c19,0,34.4,15.4,34.4,34.4C990,526.7,974.6,542.1,955.6,542.1z M827.9,365.8c-13.5,13.4-35.2,13.4-48.7,0c-13.5-13.4-13.5-35.2,0-48.7l60.2-61.5c13.5-13.4,35.2-13.4,48.7,0c13.4,13.4,13.4,35.2,0,48.7L827.9,365.8z M734,617.5c3.7,14.8,5.8,30.1,5.8,46c0,104.8-84.9,189.7-189.7,189.7c-0.3,0-0.5,0-0.8,0l0,0.1H197.9v-0.7c-3.4,0.2-6.7,0.5-10.1,0.5C89.6,853.1,10,773.5,10,675.3c0-86,61-157.7,142.1-174.2c33-78.4,110.6-133.5,201-133.5c57.8,0,110.3,22.6,149.3,59.3c26.4-44.8,75.1-75,130.9-75c83.9,0,151.9,68,151.9,151.9C785.2,549.1,765.4,589.7,734,617.5z M581.9,779.5c51.7-15.2,89.5-63,89.5-119.6c0-68.9-55.9-124.8-124.8-124.8c-17.1,0-33.4,3.5-48.2,9.7c-18.1-62.5-75.6-108.3-144-108.3c-76,0-138.7,56.6-148.5,130c-5.5-0.9-11.1-1.4-16.9-1.4c-60.7,0-109.9,49.2-109.9,110c0,60.7,49.2,109.9,109.9,109.9c2.8,0,5.6-0.1,8.4-0.3h346.8c0.8,0,1.5,0.1,2.3,0.1c0.6,0,1.1-0.1,1.7-0.1 M633.3,405.8c-43.9,0-81,28.8-93.6,68.5c-1.5,4.7-0.1,2.5,1,0.2c5.6,0.1,73.3-5.6,131.6,45.2c22.7,19.8,37.7,45.3,38,44.9c19.7-24.2,21-37.8,21-60.7C731.4,449.7,687.5,405.8,633.3,405.8z M540.8,474.5c-0.3,0-0.6,0-0.5,0C542.8,470,541.9,472.3,540.8,474.5z M636.7,307c-19,0-34.4-15.4-34.4-34.4v-91.4c0-19,15.4-34.4,34.4-34.4s34.4,15.4,34.4,34.4v91.4C671.1,291.5,655.7,307,636.7,307z M445.5,365.8l-60.2-61.5c-13.4-13.4-13.4-35.2,0-48.7c13.4-13.4,35.2-13.4,48.7,0l60.2,61.5c13.4,13.4,13.4,35.2,0,48.7C480.7,379.3,458.9,379.3,445.5,365.8z M827.9,650.3l60.2,61.5c13.4,13.4,13.4,35.2,0,48.7c-13.5,13.4-35.2,13.4-48.7,0L779.3,699c-13.5-13.4-13.5-35.2,0-48.7C792.7,636.9,814.5,636.9,827.9,650.3z"/></g>
</svg>